<?xml version="1.0" standalone="no"?>
<!DOCTYPE svg PUBLIC "-//W3C//DTD SVG 20010904//EN"
 "http://www.w3.org/TR/2001/REC-SVG-20010904/DTD/svg10.dtd">
<svg version="1.0" xmlns="http://www.w3.org/2000/svg"
 width="72.000000pt" height="72.000000pt" viewBox="0 0 72.000000 72.000000"
 preserveAspectRatio="xMidYMid meet">
<metadata>
Created by potrace 1.11, written by Peter Selinger 2001-2013
</metadata>
<g transform="translate(0.000000,72.000000) scale(0.100000,-0.100000)"
fill="#000000" stroke="none">
<path d="M575 682 c-11 -3 -32 -13 -47 -23 -44 -32 -111 -59 -146 -59 -37 0
-173 50 -166 61 4 8 -64 25 -70 18 -7 -10 -87 -270 -96 -313 -6 -28 -9 -72 -6
-98 6 -53 43 -148 57 -148 5 0 8 -3 7 -8 -5 -14 37 -50 87 -73 44 -21 63 -24
170 -23 169 1 166 1 223 54 15 13 28 23 30 22 4 -4 37 35 40 49 2 7 7 16 10
19 8 5 14 27 15 48 0 6 3 12 7 12 11 0 4 142 -9 190 -7 25 -24 79 -38 120 -14
41 -27 85 -29 97 -8 44 -19 59 -39 55z m5 -197 c10 -36 22 -70 26 -77 15 -23
21 -110 11 -148 -8 -32 -28 -72 -42 -87 -8 -8 -13 -19 -10 -24 4 -5 1 -9 -5
-9 -7 0 -25 -11 -41 -25 -53 -44 -142 -57 -217 -31 -22 8 -42 12 -45 10 -2 -3
-21 11 -41 30 -20 20 -36 33 -36 30 0 -2 -6 1 -14 8 -8 7 -12 15 -11 16 2 2
-6 22 -18 45 -26 51 -27 136 -1 192 10 22 19 45 19 50 1 6 7 31 15 58 14 47
26 57 47 36 24 -24 180 -35 241 -18 26 7 50 12 55 11 4 -1 7 3 7 9 0 5 5 7 10
4 6 -3 10 0 10 7 1 23 21 -21 40 -87z"/>
</g>
</svg>
