<svg xmlns="http://www.w3.org/2000/svg" viewBox="0 0 280.07 518.19"><defs><style>.cls-1,.cls-4{fill:#fff;}.cls-1,.cls-2,.cls-3,.cls-4{stroke:#000;stroke-linecap:round;stroke-linejoin:round;}.cls-1,.cls-2,.cls-3{stroke-width:0.5px;}.cls-2{fill:none;}</style></defs><title>юлька black</title><g id="Hair"><path class="cls-1" d="M243.51,258.66a15.9,15.9,0,0,1-6.89,3.88c-52.1-21.8-107.38-32.3-177,8.08a4.83,4.83,0,0,1-4.28-2.2c-2.58-4-5.08-9.85-7.52-17.19a65.53,65.53,0,0,1-2.58-12.72c-5.72-47.1-8.51-93-6.63-111.08q.54-7,1.49-13.53c8.22-57.27,39.14-87.53,91.37-92.44,1.09-.1,2.18-.18,3.27-.22a63.23,63.23,0,0,1,7,0,114.57,114.57,0,0,1,23.88,3.88c34.66,9.65,58.59,36.5,70,83.5,0,.12.06.24.08.36a27.19,27.19,0,0,1,.46,4.79c0,2.4.1,4.81.16,7.22,1.09,43.42,4.36,87.87,9.25,132.51A6.43,6.43,0,0,1,243.51,258.66Z" transform="translate(-9.9 -20.91)"/><path class="cls-2" d="M229.71,107.13c0,55.93,1.89,107.72,9.18,148" transform="translate(-9.9 -20.91)"/><path class="cls-2" d="M222.75,116.88c.25,46.38,2.37,90,7.92,128.7" transform="translate(-9.9 -20.91)"/><path class="cls-2" d="M215.78,136a307,307,0,0,0,2.11,52.44" transform="translate(-9.9 -20.91)"/><path class="cls-2" d="M215.5,190.8c0,11.59,5.82,46.52,8.95,58.11" transform="translate(-9.9 -20.91)"/><path class="cls-2" d="M210.45,146c-2.93,23.78-.56,64.85,5.05,87.11" transform="translate(-9.9 -20.91)"/><path class="cls-2" d="M204.23,156c-2.67,18.15,1.4,59,4.66,77.11" transform="translate(-9.9 -20.91)"/><path class="cls-2" d="M197.56,171.35a192.46,192.46,0,0,0,3.33,51.78" transform="translate(-9.9 -20.91)"/><path class="cls-2" d="M190.73,169.8a62.34,62.34,0,0,0,0,26.22" transform="translate(-9.9 -20.91)"/><path class="cls-2" d="M183.78,194.58c-.28,18.15,1.45,34.31,8.11,45.66" transform="translate(-9.9 -20.91)"/><path class="cls-2" d="M178,182.13a115.24,115.24,0,0,0,0,37.72" transform="translate(-9.9 -20.91)"/><path class="cls-2" d="M169.56,190.8c-.91,14.36-.34,27.86,2.78,39.89" transform="translate(-9.9 -20.91)"/><path class="cls-2" d="M162.67,186.46q-3.45,28.56,2.47,52.23" transform="translate(-9.9 -20.91)"/><path class="cls-2" d="M155.12,190.8c-2.17,6.63-2.73,13-1.12,19" transform="translate(-9.9 -20.91)"/><path class="cls-2" d="M150.61,210.74c1,11.26,3,20.77,6.51,27.95" transform="translate(-9.9 -20.91)"/><path class="cls-2" d="M47.62,114.12c-5.39,28.94-2.35,79.19,5.27,141" transform="translate(-9.9 -20.91)"/><path class="cls-2" d="M52,129.22C49.27,153.28,49.4,179,52,206" transform="translate(-9.9 -20.91)"/><path class="cls-2" d="M55.23,178.46c-1.39,32.43-.79,62.59,4.29,87.61" transform="translate(-9.9 -20.91)"/><path class="cls-2" d="M60.45,135.39c-2,21-1.57,41.31,2.44,60.63" transform="translate(-9.9 -20.91)"/><path class="cls-2" d="M64.89,156.7a362.93,362.93,0,0,0,1.34,101.1" transform="translate(-9.9 -20.91)"/><path class="cls-2" d="M70.3,140.35c-2.84,41.34-2.6,80,3.56,113.45" transform="translate(-9.9 -20.91)"/><path class="cls-2" d="M77.56,163.58a163.1,163.1,0,0,0,0,56.27" transform="translate(-9.9 -20.91)"/><path class="cls-2" d="M83.34,174a200.45,200.45,0,0,0,2.22,43.39" transform="translate(-9.9 -20.91)"/><path class="cls-2" d="M93.56,167.62c-6.12,18.61-6.29,39-2.67,60.62" transform="translate(-9.9 -20.91)"/><path class="cls-2" d="M93.56,190.8Q92.69,210,100.92,224" transform="translate(-9.9 -20.91)"/><path class="cls-2" d="M102,184.62c-1.69,10-1.68,19.45,1.12,28" transform="translate(-9.9 -20.91)"/><path class="cls-2" d="M109,195.71A51,51,0,0,0,113.12,224" transform="translate(-9.9 -20.91)"/><path class="cls-2" d="M117.93,178.46a66.54,66.54,0,0,0-1.7,28.95" transform="translate(-9.9 -20.91)"/><path class="cls-2" d="M125.86,179.35c-9,12.92-7.56,27.46,0,42.92" transform="translate(-9.9 -20.91)"/><path class="cls-2" d="M125.86,191.71c-.77,9.7.36,16.81,2.37,22.75" transform="translate(-9.9 -20.91)"/><path class="cls-2" d="M34.45,163.58" transform="translate(-9.9 -20.91)"/></g><g id="Body"><path id="Arm_2" data-name="Arm 2" class="cls-1" d="M268.08,268.87c-9.38,21.43-18.49,48.53-27,53.73-3.57,2.6-12.5-16.32-20.43-32.73l15-14.19A75.44,75.44,0,0,1,243,297.46c1.53-4.17,3.86-8.4,5.69-12.77,3.25-7.82,6.39-14.54,9.83-21.28a44.15,44.15,0,0,1-3.22-7.54,35.9,35.9,0,0,1,.12-21.88c.43-.12,1.75-1.35,2.62-1.08a3.46,3.46,0,0,1,2.59,3,28.83,28.83,0,0,0-.3,13.48,28.05,28.05,0,0,0,2.6-5.11c2.12-5.49,2.33-7.72,3.85-12.07a27.58,27.58,0,0,1,4.67-9.19,3.62,3.62,0,0,1,3.4.3c.88.59.56,1.41.28,2.41a52.06,52.06,0,0,1-2.8,6.7,53.73,53.73,0,0,0-3.11,9.7,34.82,34.82,0,0,0,2.3-3c2-2.83,2.58-4.57,4.87-8.49.78-1.33,1.45-2.4,1.87-3.06A2.2,2.2,0,0,1,281,227a2.4,2.4,0,0,1,1.54,3.06c-1,2.52-3.23,5.32-4.89,9a49.13,49.13,0,0,0-2.44,6.59,48.26,48.26,0,0,0,4.22-4.89c2.36-3.13,3.41-6.77,5.35-8.46a1.74,1.74,0,0,1,2.06.16,2.69,2.69,0,0,1,.81,3c-2,3.72-4.05,7.72-6,12-.86,1.9-1.68,3.78-2.44,5.63a25.2,25.2,0,0,0,2.85-2.34,23.53,23.53,0,0,0,4.77-6.13c.5-.93,1.65-.37,1.82-.32,1,.31,1.37,1.15.86,3.08-1,3.72-4.77,8.88-10.37,14.19A38.35,38.35,0,0,1,268.08,268.87Z" transform="translate(-9.9 -20.91)"/><path id="Arm_1" data-name="Arm 1" class="cls-1" d="M60,325.13c-2.52,3.93-5.89,9.89-12.33,14.78-3.92,3-8.5,4.47-11.67,5.89a15.8,15.8,0,0,0-1.55,6.89A15.57,15.57,0,0,0,36,359.35a11.17,11.17,0,0,0,10,6.89,13.72,13.72,0,0,0,3.86-2c3.66-2.88,5.31-5.4,11-12.15,8.62-10.28,11.33-13.53,12.85-15.74s3.19-4.37,3.39-6.16c1.53-7.77,3.61-14.17,4.72-22.84.66-5.1,1.19-10.08,1.61-14.91l-18.88-8.67c-.69,4.37-1.34,8.86-1.92,13.45C61.36,306.91,60.53,316.24,60,325.13Z" transform="translate(-9.9 -20.91)"/><path id="Leg_1" data-name="Leg 1" class="cls-1" d="M132,521.33a34.06,34.06,0,0,1-13.58,1.3,43.25,43.25,0,0,0-2.67-11.85L131,509.24C131,513.29,131.67,518,132,521.33Z" transform="translate(-9.9 -20.91)"/><path id="Leg_2" data-name="Leg 2" class="cls-1" d="M226.4,516a34.24,34.24,0,0,1-13.58,1.31c-.59-4.91-1.19-9.34-2.67-13l15.35.28C225.73,508.12,226.13,512,226.4,516Z" transform="translate(-9.9 -20.91)"/><path id="Pants" class="cls-1" d="M227.56,504.46a94.42,94.42,0,0,1-20.32-.44c-2.75-13.31-6.26-24.61-7.68-38.44-1.53-15-5.51-31.32-8.44-45.34C184,408.17,170.05,404,156.49,405.32c-12.81,1.29-24.36,8.33-28,19.81-1.7,21.55,2.92,51.28,4.55,84.11-7.11,1.74-13.07,3.27-19.88,2.68-3.44-52.89-26-104.12-19.4-132.46,43,10.41,82.68,9.05,120.63-6.52a25.77,25.77,0,0,1,2.32,8.75c3.42,27.3,4.13,57.54,7.24,83.8C225.18,476.29,224.82,484.92,227.56,504.46Z" transform="translate(-9.9 -20.91)"/><path id="Boot_2" data-name="Boot 2" class="cls-1" d="M247.5,526.24a1.33,1.33,0,0,1,0,1c-1.84,4.8-8.09,6.48-14.94,6.69-8.2-.1-14.58-2-19.34-5.45-1.9-3.31-2.19-7.06-1.29-11.13l.85-.06a29.14,29.14,0,0,0,7.1,0,28.06,28.06,0,0,0,6.94-1.46c7.81.3,13.71,2.3,16.22,4.27A14.81,14.81,0,0,1,247.5,526.24Z" transform="translate(-9.9 -20.91)"/><path id="Boot_1" data-name="Boot 1" class="cls-1" d="M153.48,531.43a1.37,1.37,0,0,1-.07.45c-1.71,5-8.06,6.75-15,7-8.19-.09-14.58-2-19.33-5.44-1.91-3.31-2.2-7.07-1.3-11.14l.85-.06a28.65,28.65,0,0,0,7.1,0,27.17,27.17,0,0,0,6.94-1.46c7.82.3,14.83,2.07,17.34,4A8.65,8.65,0,0,1,153.48,531.43Z" transform="translate(-9.9 -20.91)"/><path id="Neck" class="cls-1" d="M172.23,212.23c-3.12,33-51.48,29.09-50.27-1.43,3.37-1.55,6.06-4.05,8.88-5.82a.73.73,0,0,0,.36-.63l1-16.73c8.66.49,15.75.15,23.58-1.88l1.06,18.59a.72.72,0,0,0,.39.63A164.27,164.27,0,0,0,172.23,212.23Z" transform="translate(-9.9 -20.91)"/><path id="T-shirt" class="cls-1" d="M240.71,271.39A128.8,128.8,0,0,1,218.78,293a.68.68,0,0,1-1-.19l-10.13-17.27c1.46,23.53,2.52,86.37,9,97.78-34.37,17.34-85.48,17-124.45,7,4.41-48.35.72-81.77-2.66-98.52L85,293a1.17,1.17,0,0,1-1.46.68C75.71,291,66.26,286,55.84,279.59a1.29,1.29,0,0,1-.54-1.54c7-19.49,14.31-42.55,19.14-50.94a6.63,6.63,0,0,1,3.21-2.82,280.24,280.24,0,0,1,44.3-14c0,.33,0,.65,0,1,.17,9.59,4.77,16.47,11.13,20.38a26.6,26.6,0,0,0,20.18,3l.77-.21a3,3,0,0,0,.4-.12c.66-.2,1.32-.43,2-.68,7.68-3.05,14.07-9.94,15.75-21,.06-.31.1-.62.14-.93,16.41,2.31,34.31,4.94,41.24,8.56a7.5,7.5,0,0,1,3.25,3.43c7.47,15.5,14.9,31.3,24,46.67A1,1,0,0,1,240.71,271.39Z" transform="translate(-9.9 -20.91)"/></g><g id="Guitar"><path id="Body-2" data-name="Body" class="cls-1" d="M154,482a54.69,54.69,0,0,1-7.88,26.18c-9.63,15.68-28.56,27.76-50.07,26.87-21-.86-34.33-13.7-36.9-16.28C43.49,503.06,42.73,483.29,43,477.12a63.17,63.17,0,0,1,3.05-15.91c1.14-3.26,2.28-7,2.76-8.3,1.34-3.5.18-9.82-3.09-13a37.63,37.63,0,0,1-9.55-17.07A46.23,46.23,0,0,1,35,411.48a38.56,38.56,0,0,1,40.23-36.81c21.26.94,38.43,20.27,37.49,41.54-.15,3.62,2,9.63,7.27,11.89,0,0,7,4.29,11,7.19,5.72,4.23,9.73,7.58,15,17C147.78,455.46,154.62,468.18,154,482Z" transform="translate(-9.9 -20.91)"/><circle id="Hole" class="cls-1" cx="82.77" cy="446.45" r="18.61"/><path id="Neck-2" data-name="Neck" class="cls-1" d="M32.6,324.9,81,456.69l13.84-5.61L44.31,319.2a2.4,2.4,0,0,1-.15-1.06l.49-6.8a2.92,2.92,0,0,0-.19-1.27l-13.63-36a1.69,1.69,0,0,0-.75-.87l-4.75-2.61a1.54,1.54,0,0,0-1.34-.06l-13,5.71a1.37,1.37,0,0,0-.82,1.26v6.77a2.32,2.32,0,0,0,.2.93l14.93,34.46a2.06,2.06,0,0,0,.9,1l5.37,3A2.29,2.29,0,0,1,32.6,324.9Z" transform="translate(-9.9 -20.91)"/><g id="Bridge"><path class="cls-1" d="M88.23,503.43,119.78,492c2.83.64,3.79,2.41,2.22,5.7L91.49,508.61C88.13,507.51,87.14,505.76,88.23,503.43Z" transform="translate(-9.9 -20.91)"/><line class="cls-1" x1="82.93" y1="484.45" x2="107.8" y2="474.54"/></g><line id="Nut" class="cls-1" x1="22.18" y1="302.52" x2="33.95" y2="297.93"/><g id="Strings"><polyline id="E" class="cls-2" points="103.33 479.95 32.27 297.39 29.21 288"/><polyline id="B" class="cls-2" points="101 480.78 30.32 298.23 23.43 276.89"/><polyline id="G" class="cls-2" points="98.53 481.66 28.55 299.12 17.21 263.71"/><polyline id="D" class="cls-2" points="8.4 267.93 26.77 300.15 96.13 482.52"/><polyline id="E-2" data-name="E" class="cls-2" points="18.18 293.26 23.21 302 91.42 484.2"/><polyline id="A" class="cls-2" points="93.74 483.37 24.99 301.12 12.93 280.57"/></g><g id="Pegs"><path class="cls-3" d="M26.44,285.16l8.18-3.6a.47.47,0,0,1,.54.11c.73.85,1.67,3.33,1.33,3.54s-.89-.62-1.36-1.34a4.37,4.37,0,0,1-.66-1.83l-7.89,3.46Z" transform="translate(-9.9 -20.91)"/><path class="cls-3" d="M32.87,298.28l6.85-3a.44.44,0,0,1,.53.11c.73.85,1.68,3.32,1.33,3.53s-.89-.62-1.35-1.33a4.5,4.5,0,0,1-.67-1.84L33,298.62Z" transform="translate(-9.9 -20.91)"/><path class="cls-3" d="M38.52,309.48l5.68-2.54a.47.47,0,0,1,.54.11c.73.85,1.67,3.32,1.33,3.53s-.89-.61-1.36-1.33a4.23,4.23,0,0,1-.66-1.83c-2.63,1.15-2.76,1.25-5.39,2.4Z" transform="translate(-9.9 -20.91)"/><path class="cls-3" d="M19.19,288.77l-7.08,3.28a.45.45,0,0,0-.27.47c.15,1.11,1.36,3.46,1.75,3.34s.13-1.07-.1-1.89a4.4,4.4,0,0,0-.92-1.72c2.61-1.2,4.17-1.95,6.78-3.15Z" transform="translate(-9.9 -20.91)"/><path class="cls-3" d="M23.51,301.37l-6.12,2.81a.45.45,0,0,0-.27.47c.15,1.11,1.37,3.46,1.75,3.34s.13-1.07-.09-1.9a4.47,4.47,0,0,0-.93-1.71l5.82-2.67Z" transform="translate(-9.9 -20.91)"/><path class="cls-3" d="M29,314.17,23,317a.45.45,0,0,0-.27.47c.15,1.11,1.36,3.46,1.75,3.34s.13-1.07-.1-1.89a4.4,4.4,0,0,0-.92-1.72c2.61-1.2,3.18-1.49,5.79-2.69Z" transform="translate(-9.9 -20.91)"/><circle class="cls-3" cx="8.13" cy="268.65" r="0.92"/><circle class="cls-3" cx="17.92" cy="263.78" r="0.92"/><circle class="cls-3" cx="24.18" cy="277.08" r="0.92"/><circle class="cls-3" cx="12.58" cy="281.22" r="0.92"/><circle class="cls-3" cx="18.18" cy="293.97" r="0.92"/><circle class="cls-3" cx="29.77" cy="288.41" r="0.92"/></g></g><g id="Hand"><path id="Hand-2" data-name="Hand" class="cls-1" d="M49.71,340.91a3.12,3.12,0,0,1,1.63,3.55L40.5,350.63l11.43-4.24a3,3,0,0,1,1.33,3.7l-11.09,6.15,11.69-4.66a2.51,2.51,0,0,1,.62,3.55c-2.75,1.79-6.29,3.85-10.09,5.89,3.58-.15,6.31-2.94,10.09-4.26a2.59,2.59,0,0,1,0,2.82A37.65,37.65,0,0,1,46,366.24c-4.35,0-7.6-2.48-10-6.89a15.56,15.56,0,0,1,0-13.55Z" transform="translate(-9.9 -20.91)"/></g><g id="Face"><path class="cls-1" d="M214.6,106.84a9.32,9.32,0,0,0-5.45,1.75C203,77.18,173.28,53.36,137.5,53.36c-38.72,0-70.39,27.91-72.69,63.13a13.52,13.52,0,0,0-8.14-2.69,13,13,0,1,0,0,25.89,13.5,13.5,0,0,0,9.8-4.16c7.35,30,36.36,52.34,71,52.34,38.84,0,70.57-28.08,72.71-63.46a9.33,9.33,0,1,0,4.39-17.57ZM58.3,138.53c-3.23.36-6.06-1.26-6.32-3.61s2.16-4.54,5.39-4.89,6.07,1.26,6.32,3.61S61.54,138.18,58.3,138.53Zm157-13.82c-2.4.33-4.56-1-4.82-2.87s1.47-3.74,3.88-4.06,4.56,1,4.82,2.87S217.71,124.39,215.31,124.71Z" transform="translate(-9.9 -20.91)"/><path class="cls-3" d="M215.31,124.71c-2.4.33-4.56-1-4.82-2.87s1.47-3.74,3.88-4.06,4.56,1,4.82,2.87S217.71,124.39,215.31,124.71Z" transform="translate(-9.9 -20.91)"/><path class="cls-3" d="M58.3,138.53c-3.23.36-6.06-1.26-6.32-3.61s2.16-4.54,5.39-4.89,6.07,1.26,6.32,3.61S61.54,138.18,58.3,138.53Z" transform="translate(-9.9 -20.91)"/><path class="cls-1" d="M133.25,147.09" transform="translate(-9.9 -20.91)"/><path class="cls-1" d="M141.3,149.19" transform="translate(-9.9 -20.91)"/><path class="cls-3" d="M80.09,112.89c9.68-.39,19.86-1.3,30.61-2.81a1,1,0,0,0,.86-1.14c-.12-.86-.44-2-1.28-2.2-5.06-1.23-11.61-.56-19.45.3a18.73,18.73,0,0,0-4,1,17.66,17.66,0,0,0-7,4.45A.27.27,0,0,0,80.09,112.89Z" transform="translate(-9.9 -20.91)"/><path class="cls-3" d="M166.28,105.44c9.66-.74,18.34-1.25,26.36-1.09a2,2,0,0,0,1.63-1.31c.55-1,0-1.82-1.65-2.62a4.79,4.79,0,0,0-2.43-.6c-5.91-.22-12.11,0-18.36.36-.92,0-5.27,1.55-6.27,2.47a1.85,1.85,0,0,0-.1,2.2h0C165.62,105,166.05,105.45,166.28,105.44Z" transform="translate(-9.9 -20.91)"/><circle class="cls-3" cx="169.72" cy="102.14" r="6.17"/><circle class="cls-3" cx="157.06" cy="119.45" r="1.2"/><path class="cls-4" d="M132.54,146.77c.31,5.83,4.52,10.39,9.63,9.89s8.77-4.95,8.42-10.81" transform="translate(-9.9 -20.91)"/><circle class="cls-3" cx="89.44" cy="108.31" r="6.17"/></g><g id="Bang"><path class="cls-1" d="M235.66,109a106.3,106.3,0,0,1-84.74-47.39c-20.71,31.4-59.22,52.5-103.3,52.5q-3.79,0-7.53-.22c8.22-57.27,39.14-87.53,91.37-92.44,1.09-.1,2.18-.18,3.27-.22a63.23,63.23,0,0,1,7,0,114.57,114.57,0,0,1,23.88,3.88c34.66,9.65,58.59,36.5,70,83.5C235.61,108.77,235.64,108.89,235.66,109Z" transform="translate(-9.9 -20.91)"/><path class="cls-2" d="M153.12,43c-4.71-3.93-11.3-4.95-19.34-3.71" transform="translate(-9.9 -20.91)"/><path class="cls-2" d="M52,87.69q9.22-30,31.34-41" transform="translate(-9.9 -20.91)"/><path class="cls-2" d="M63.78,89.21q-10.55,3-18.66,19.48" transform="translate(-9.9 -20.91)"/><path class="cls-2" d="M143.34,61.5c-7.62,10.39-31.09,19.11-55.71,27.71" transform="translate(-9.9 -20.91)"/><path class="cls-2" d="M142.3,52.61c-12.79,5.33-30.16,16.23-48.74,28.6" transform="translate(-9.9 -20.91)"/><path class="cls-2" d="M139,46.69c-34.33,8.66-58.46,20.89-76.06,35.4" transform="translate(-9.9 -20.91)"/><path class="cls-2" d="M119.63,48.91c-10.41,1.19-28.85,9.67-49.33,20" transform="translate(-9.9 -20.91)"/><path class="cls-2" d="M125.86,81.21c-20.76,11-45,18.21-72,22.37" transform="translate(-9.9 -20.91)"/><path class="cls-2" d="M151.63,37.5C135.42,31.42,117,35,97.71,42.39" transform="translate(-9.9 -20.91)"/><path class="cls-2" d="M163.56,50.09c23.09,5.85,41.57,19.34,54.33,42.3" transform="translate(-9.9 -20.91)"/><path class="cls-2" d="M166,45.69c22.48,4.05,41.71,16.34,55.67,42" transform="translate(-9.9 -20.91)"/><path class="cls-2" d="M172.34,62.46C187.86,72.54,201.47,82.7,211.45,93" transform="translate(-9.9 -20.91)"/><path class="cls-2" d="M161.56,64.39c16.51,16.37,33.45,29.1,51.22,34.52" transform="translate(-9.9 -20.91)"/><path class="cls-2" d="M155.93,32.76q-11.62-9-31.26-7.41" transform="translate(-9.9 -20.91)"/><path class="cls-2" d="M167.49,39.43Q181,38.17,194.6,46.69" transform="translate(-9.9 -20.91)"/><path class="cls-2" d="M150,62.46c6.89-9.08,11.05-21.14,13.56-34.88" transform="translate(-9.9 -20.91)"/><path class="cls-2" d="M144.08,50.09C127.6,52.66,103.43,64.94,73.86,84" transform="translate(-9.9 -20.91)"/><path class="cls-2" d="M111.78,44.17c-10.92,2.17-21.2,7-31,14.22" transform="translate(-9.9 -20.91)"/><path class="cls-2" d="M215.78,94.84q12.6,3.76,13.93,8.74" transform="translate(-9.9 -20.91)"/></g><g id="Moroshka_art" data-name="Moroshka art"><g id="Legs"><path id="Leg_2-2" data-name="Leg 2" class="cls-1" d="M165.63,344.24c2.17,1,4,1,5.25-.3a1.16,1.16,0,0,0,.13-1.34c-.88-1.25-2.64-1.12-4.89-.09l-.67-10-1.22.14.79,10.68A1.1,1.1,0,0,0,165.63,344.24Z" transform="translate(-9.9 -20.91)"/><path id="Leg_1-2" data-name="Leg 1" class="cls-1" d="M141,345.81c2.17,1,4,1,5.26-.3a1.15,1.15,0,0,0,.12-1.34c-.88-1.25-2.63-1.12-4.89-.09l-.66-10-1.22.13.78,10.69A1.12,1.12,0,0,0,141,345.81Z" transform="translate(-9.9 -20.91)"/></g><polygon id="Crown" class="cls-1" points="146.17 243.28 128.69 244.52 127.13 225.67 133.32 232.49 136.06 225 140.1 231.75 145.27 224.67 146.17 243.28"/><g id="Dress"><path id="Red_dress" data-name="Red dress" class="cls-1" d="M127.9,303.73c-4.72,6-7.88,15.28-8.53,27.92,4.83,1.34,10.61,1.42,17.08.59,2.2-.18,3.78-1.14,4-3.83.94-5.49.84-14.12.59-23.2l1.8,23a50.34,50.34,0,0,1,18.28-1.39l-.6-23c.58,8.57,1.18,17,2.59,22.17a5.1,5.1,0,0,0,1.44,2.5,3.21,3.21,0,0,0,2.57.87,89.21,89.21,0,0,0,17.71-2c-1.88-8.34-6.53-16.68-11.93-25C157.53,298.19,142.7,297.58,127.9,303.73Z" transform="translate(-9.9 -20.91)"/><path id="Lace_2" data-name="Lace 2" class="cls-1" d="M163.42,324.05a1.54,1.54,0,0,1-.28,1.64,3.3,3.3,0,0,1,1.65,3.58,5.92,5.92,0,0,1,2.18-.5,2.21,2.21,0,0,1,2,.89,2.91,2.91,0,0,1,4.11-.34,2,2,0,0,1,1.68-1,2.28,2.28,0,0,1,2,.63,2.41,2.41,0,0,1,1.78-.93c.59-.08,1.56,0,1.86.45a5,5,0,0,1,2.5-1.39,3.16,3.16,0,0,1,1.5.19,3.09,3.09,0,0,1,1.13.93,2.38,2.38,0,0,1-.52,3.46c-1.11,1-2.6,1.84-3.63.78a1.7,1.7,0,0,1-1.73.91c-.63,0-1.27,0-1.46-.57,0,.87-1,1.35-1.88,1.36a3.07,3.07,0,0,1-2.33-1.06,3.26,3.26,0,0,1-2.24,1.53,2.38,2.38,0,0,1-2.51-1.14,3,3,0,0,1-2.88.86c-1-.17-1.38-.08-2.1-.79-.12-.12-.22-.72-.37-.76s-.87.51-1,.57c-1,.49-2.07-.28-3-1-1.42-1-1.14-2.78-.76-4.31a2.63,2.63,0,0,1-.85-2.33,3.28,3.28,0,0,1-1.42-2.36,2.7,2.7,0,0,1,.69-2.61c-.24-.38-.7-.51-.87-.93a5,5,0,0,1-.26-2.78c.23-1.07,1.7-1.46,2.8-1.39a3.61,3.61,0,0,1,2.71,1.63,1.53,1.53,0,0,1-.26,2.05c.85.07,1.1.85,1.25,1.64.1.56.09,1.53-.25,1.7s.15.45.36.64A1.42,1.42,0,0,1,163.42,324.05Z" transform="translate(-9.9 -20.91)"/><path id="Lace_1" data-name="Lace 1" class="cls-1" d="M146,312.76a3.86,3.86,0,0,1-.26,4.51,3.11,3.11,0,0,1,0,3.75,1.32,1.32,0,0,1,.62,1.31,1.22,1.22,0,0,1-.6,1.24,2.62,2.62,0,0,1-.49,2.88,2.42,2.42,0,0,1,.45,2.2c-.1.33-.49,1.11-.8,1a3.79,3.79,0,0,1-3.38,5c-.25.91-.76,1.22-1.65,1.51s-2.15.54-2.87-.05c-.44.92-1.51,1.05-2.52,1.14s-1.92.12-2.5-.71a2.53,2.53,0,0,1-2.09.93,2.88,2.88,0,0,1-2.36-.69,3.46,3.46,0,0,1-1.86.61c-.7,0-1.54-.23-1.69-.92-.22.32-.89.3-1.25.17A1.66,1.66,0,0,1,122,336a1.94,1.94,0,0,1-2.23.17,2.38,2.38,0,0,1-1.36-1.61,2.61,2.61,0,0,1,1.28-3.33,2.14,2.14,0,0,1,1.53-.25,1.61,1.61,0,0,1,1.44.86,1.67,1.67,0,0,1,1.47-.17c.51.12,1.16.28,1.36.75a5.85,5.85,0,0,1,2.45-.55,2.45,2.45,0,0,1,2.21.77,4.81,4.81,0,0,1,4.14-.11,2.68,2.68,0,0,1,2.82-.58.58.58,0,0,0,.29.05c.15,0,.25-.19.34-.32a1.7,1.7,0,0,1,1.57-.71,5.56,5.56,0,0,1,.46-2,1.36,1.36,0,0,1,.41-.56.51.51,0,0,0,.21-.17.3.3,0,0,0,0-.23,5.68,5.68,0,0,1-.21-2c0-.31.08-1.1.39-1.12a2,2,0,0,1,.07-2.11.45.45,0,0,0,.09-.2.36.36,0,0,0-.08-.19,3.9,3.9,0,0,1,.26-4c1.22-2,2-4,3.93-5.23A3.18,3.18,0,0,1,146,312.76Z" transform="translate(-9.9 -20.91)"/><g id="Crap"><path class="cls-1" d="M120.54,333.11a1.25,1.25,0,0,0-.29,1.48" transform="translate(-9.9 -20.91)"/><path class="cls-1" d="M122.12,332.63c.26-.43-.41-1.14-.84-.94" transform="translate(-9.9 -20.91)"/><path class="cls-1" d="M123.19,333.08a1.75,1.75,0,0,0,0,.91,1.63,1.63,0,0,0,.42.52l.75.72" transform="translate(-9.9 -20.91)"/><path class="cls-1" d="M126.15,333.39a.44.44,0,0,1,.53,0,1.16,1.16,0,0,1,.32.49,5.38,5.38,0,0,1,.25.87" transform="translate(-9.9 -20.91)"/><path class="cls-1" d="M128.58,334.24a6.5,6.5,0,0,1,.15,1.39" transform="translate(-9.9 -20.91)"/><path class="cls-1" d="M130.19,334a.85.85,0,0,0-.23-.92,1.88,1.88,0,0,0-.91-.43" transform="translate(-9.9 -20.91)"/><path class="cls-1" d="M130.63,336.27a4.32,4.32,0,0,0,2.1-2" transform="translate(-9.9 -20.91)"/><path class="cls-1" d="M134,334.39a.74.74,0,0,0,.45-.79c0-.19-.16-.38-.17-.56a.47.47,0,0,0-.42-.38" transform="translate(-9.9 -20.91)"/><path class="cls-1" d="M137.56,333.74c-.14,0-.28.09-.38.21a2.39,2.39,0,0,0-.74,1.46" transform="translate(-9.9 -20.91)"/><path class="cls-1" d="M139,334.2c.22,0,.29-.31.32-.53a1.23,1.23,0,0,0-.12-.87.87.87,0,0,0-.7-.29" transform="translate(-9.9 -20.91)"/><path class="cls-1" d="M141.11,331.18a.7.7,0,0,0-.29.57,1.87,1.87,0,0,0,0,.94.64.64,0,0,0,.74.45" transform="translate(-9.9 -20.91)"/><path class="cls-1" d="M142.29,331.69c.7-.12,1.35-1.93.94-2.39" transform="translate(-9.9 -20.91)"/><path class="cls-1" d="M141,329.61c.63.48,1.76-1.79,1.28-2.41" transform="translate(-9.9 -20.91)"/><path class="cls-1" d="M144.28,324.3c.05.21-.07.43-.09.65,0,.48.41.85.82,1.12" transform="translate(-9.9 -20.91)"/><path class="cls-1" d="M141.7,322.3c.19.92.34,1.84.45,2.77" transform="translate(-9.9 -20.91)"/><path class="cls-1" d="M144.65,322.43a3.53,3.53,0,0,0-.19-2.32" transform="translate(-9.9 -20.91)"/><path class="cls-1" d="M142.78,317.58c0,.26.17.51.22.77.09.48-.33.9-.76,1.14" transform="translate(-9.9 -20.91)"/><path class="cls-1" d="M144.5,317.87a1.4,1.4,0,0,0,.95-.9,2.58,2.58,0,0,0,.07-1.35" transform="translate(-9.9 -20.91)"/><path class="cls-1" d="M159,319.76a.31.31,0,0,1,.39.09.77.77,0,0,1,.17.39,8.5,8.5,0,0,1,.23,1.67" transform="translate(-9.9 -20.91)"/><path class="cls-1" d="M159.18,324.52a2.11,2.11,0,0,0,.72,2.38" transform="translate(-9.9 -20.91)"/><path class="cls-1" d="M161.62,322.42c.1-.07.21.07.25.18a3.69,3.69,0,0,1,.12,2" transform="translate(-9.9 -20.91)"/><path class="cls-1" d="M161.24,326.7a2.67,2.67,0,0,1,1.9,1.88" transform="translate(-9.9 -20.91)"/><path class="cls-1" d="M162,329.3a3.51,3.51,0,0,0,.47,2.68" transform="translate(-9.9 -20.91)"/><path class="cls-1" d="M164.51,329.87a.29.29,0,0,1,.35.06.87.87,0,0,1,.2.32,4.11,4.11,0,0,1,.41,1.27" transform="translate(-9.9 -20.91)"/><path class="cls-1" d="M166.5,330a.65.65,0,0,1,.54.23,2.38,2.38,0,0,1,.73,1.33" transform="translate(-9.9 -20.91)"/><path class="cls-1" d="M165.84,333.18a3.32,3.32,0,0,0,1,.42,2.3,2.3,0,0,0,1.37-.12" transform="translate(-9.9 -20.91)"/><path class="cls-1" d="M169.55,330.63a3.5,3.5,0,0,0-.07.91,1.2,1.2,0,0,0,.39.8" transform="translate(-9.9 -20.91)"/><path class="cls-1" d="M172,331l1-.16a1.75,1.75,0,0,0,1.17-.51,1.7,1.7,0,0,0,.26-.69" transform="translate(-9.9 -20.91)"/><path class="cls-1" d="M174,332.37a2.27,2.27,0,0,0-1.78,1.26" transform="translate(-9.9 -20.91)"/><path class="cls-1" d="M176,331a.62.62,0,0,0-.5,0c-.62.25.06,2.05.87,2.31" transform="translate(-9.9 -20.91)"/><path class="cls-1" d="M176.84,329.15c.84-.32,1.53,1.71.66,2" transform="translate(-9.9 -20.91)"/><path class="cls-1" d="M179.63,329.92c-.47.14-.76,2-.25,2" transform="translate(-9.9 -20.91)"/><path class="cls-1" d="M180.54,329.52a1.22,1.22,0,0,1,.47-.63,6.13,6.13,0,0,1,1.1-.72" transform="translate(-9.9 -20.91)"/><path class="cls-1" d="M183.9,327.55a2.1,2.1,0,0,1,1.56,1.91" transform="translate(-9.9 -20.91)"/><path class="cls-1" d="M183,329.4l.11,0a.91.91,0,0,1,.08.79,2,2,0,0,1-.46.68,2.62,2.62,0,0,1-1.18.76" transform="translate(-9.9 -20.91)"/><path class="cls-1" d="M178.41,330.23" transform="translate(-9.9 -20.91)"/></g></g><path id="Leaves" class="cls-1" d="M112.75,314a3.27,3.27,0,0,1,1.78-.1c3.37.79,5.76.95,7.41-.47,1.06-.92,1.94-2.5,3.55-4.32,2-3.6,4.29-6.47,7.26-7.41A100,100,0,0,1,165.63,300a13.15,13.15,0,0,1,9.15,6c.36,1.88,1.64,3.43,3.89,4.63a63.35,63.35,0,0,0,7.11,1.93c.9.22,1.39.6,1.48,1.11a50,50,0,0,1-9.92,1c-6.29.47-11.19-3.08-16.36-9.7.2,2.85.05,5.38.75,7.61a11.74,11.74,0,0,0,1.33,3.31c1.18,1.59,3.48,2.72,4.57,4.56l0,0a10.81,10.81,0,0,0-5-1.34,9.6,9.6,0,0,1-7.18-3.29,11.42,11.42,0,0,1-2.17-3.92c-.79-2.28-1.55-4.94-2.27-7.91-1.48,2.22-2.51,4.75-3.93,7.28-.57,1-1.13,2-1.78,3a16.34,16.34,0,0,1-3.82,3.93,13.32,13.32,0,0,1-1.92,1.23c-2.26,1.14-4.71,3-6.7,4.22.68-1.18,1.31-2.35,1.86-3.44a22.79,22.79,0,0,0,2.45-12.62s-3.86,3.34-6.86,6.25a9,9,0,0,1-7.33,2.95A45.57,45.57,0,0,1,112.75,314Z" transform="translate(-9.9 -20.91)"/><g id="Bodies"><ellipse class="cls-1" cx="127.73" cy="253.41" rx="13.33" ry="14.37"/><ellipse class="cls-1" cx="148.2" cy="252.49" rx="13.36" ry="14.85"/><ellipse class="cls-1" cx="116.29" cy="273.93" rx="12.19" ry="14.3"/><ellipse class="cls-1" cx="171.46" cy="291.51" rx="11.99" ry="14.85" transform="translate(-70.7 24.78) rotate(-12.91)"/><ellipse class="cls-1" cx="130.55" cy="273.63" rx="12.22" ry="14.59"/><ellipse class="cls-1" cx="157.3" cy="293.34" rx="11.75" ry="14.86" transform="matrix(1, -0.07, 0.07, 1, -30.36, -8.98)"/><g id="Faces"><ellipse class="cls-3" cx="131.39" cy="265.52" rx="1.01" ry="0.98" transform="translate(-13.52 -19.09) rotate(-0.78)"/><ellipse class="cls-3" cx="142" cy="268.64" rx="1.05" ry="1.02" transform="translate(-13.56 -18.94) rotate(-0.78)"/><ellipse class="cls-3" cx="118.92" cy="285.39" rx="0.91" ry="0.89" transform="translate(-13.79 -19.25) rotate(-0.78)"/><ellipse class="cls-3" cx="127.98" cy="287.57" rx="0.9" ry="0.88" transform="translate(-13.82 -19.13) rotate(-0.78)"/><ellipse class="cls-3" cx="131.92" cy="294.29" rx="1.02" ry="1.06" transform="translate(-176.84 394.59) rotate(-87.93)"/><ellipse class="cls-3" cx="142.84" cy="296.36" rx="1.06" ry="1.02" transform="translate(-23.85 -13.77) rotate(-2.73)"/><ellipse class="cls-3" cx="150.96" cy="292.87" rx="1.08" ry="1.04" transform="translate(-30.34 -9.43) rotate(-4.08)"/><ellipse class="cls-3" cx="162.96" cy="287.79" rx="1.04" ry="1.06" transform="translate(-149.26 400.99) rotate(-84.4)"/><ellipse class="cls-3" cx="169.88" cy="285.37" rx="1.06" ry="1.03" transform="translate(-13.78 -18.56) rotate(-0.78)"/><ellipse class="cls-3" cx="180.51" cy="288.48" rx="1.05" ry="1.03" transform="translate(-13.83 -18.41) rotate(-0.78)"/><ellipse class="cls-3" cx="158.66" cy="274.91" rx="1.07" ry="1.04" transform="translate(-13.64 -18.71) rotate(-0.78)"/><ellipse class="cls-3" cx="168.28" cy="269.54" rx="1.05" ry="1.02" transform="translate(-13.57 -18.58) rotate(-0.78)"/><path class="cls-1" d="M137.37,270.16c-.16,1-.94,1.57-1.57,1.44a1.73,1.73,0,0,1-.94-2.25" transform="translate(-9.9 -20.91)"/><path class="cls-1" d="M121.82,288.68a1.24,1.24,0,0,0,.85,1.19,1.11,1.11,0,0,0,1.31-.78" transform="translate(-9.9 -20.91)"/><path class="cls-1" d="M135.65,298.18a1.45,1.45,0,0,0,.8,1.75,1.23,1.23,0,0,0,1.39-1" transform="translate(-9.9 -20.91)"/><path class="cls-1" d="M156.62,294a1.69,1.69,0,0,0,2.46.82,1.91,1.91,0,0,0,.57-2.25" transform="translate(-9.9 -20.91)"/><path class="cls-1" d="M173,289.45c-.23,1.13.42,2.09,1.13,2.13s1.21-.58,1.37-1.47" transform="translate(-9.9 -20.91)"/><path class="cls-1" d="M163.67,275.58c.36.65,1.12,1.07,1.7.64a1.64,1.64,0,0,0,.43-2" transform="translate(-9.9 -20.91)"/></g></g></g></svg>