<svg id="Layer_1" data-name="Layer 1" xmlns="http://www.w3.org/2000/svg" viewBox="0 0 75.72 18.77"><title>KOSHKAMOROSHKA text</title><g id="KOSHKAMOROSHKA"><path id="K" d="M11.86,24.23a.22.22,0,0,1-.21.19H11.6c-1.61-.36-2.31-3.6-2.81-6-.17-.77-.29-1.42-.43-1.83-.51-1.44-1.66-2.83-3.12-2.78v7.27a.23.23,0,0,1-.22.24.23.23,0,0,1-.24-.24V6.37A.23.23,0,0,1,5,6.15a.22.22,0,0,1,.22.22V13.3a0,0,0,0,0,0,0c1.73-1.87,2.47-4.46,3.1-7a.22.22,0,0,1,.26-.17.2.2,0,0,1,.17.27c-.6,2.47-1.34,5-3,7,1.51.24,2.54,1.73,3,3,.14.43.29,1.1.46,1.87.45,2.14,1.12,5.35,2.44,5.64A.21.21,0,0,1,11.86,24.23Z" transform="translate(-4.78 -5.82)"/><path id="O" d="M11.09,20.75c-1.2-1-1.36-4.71-1.44-8.12,0-.41,0-.74,0-1,0-1.89.55-5.8,2.18-5.8.48,0,1,.36,1.47,1,1.7,2.38,1.46,7.66.77,10.68a4,4,0,0,0-.12.41c-.36,1.27-.89,3.15-2,3.15A1.36,1.36,0,0,1,11.09,20.75Zm-1-9.13c0,.24,0,.6,0,1,.05,2.23.12,6.84,1.27,7.8a.91.91,0,0,0,.55.24c.75,0,1.28-1.82,1.54-2.81a2.62,2.62,0,0,0,.12-.41c.67-2.83.91-8.06-.67-10.29-.41-.56-.79-.87-1.11-.87C10.85,6.27,10.09,9.15,10.09,11.62Z" transform="translate(-4.78 -5.82)"/><path id="S" d="M16.28,21c-1-.65-1.4-2.26-1.16-4.25a.23.23,0,0,1,.24-.21.25.25,0,0,1,.22.26c-.22,1.82.14,3.27,1,3.82a1.12,1.12,0,0,0,1.22,0c.63-.33,1.25-1.37,1.18-3.24a7,7,0,0,0-1.54-3.62,11.49,11.49,0,0,1-1.63-3.46v0c-.31-1.2-.72-2.83.53-3.93A1.44,1.44,0,0,1,18,6.13c.5.26,1.32,1,1,3.36a.27.27,0,0,1-.27.19.23.23,0,0,1-.19-.26c.17-1.47-.12-2.52-.79-2.88a1,1,0,0,0-1.13.09c-1,.94-.69,2.31-.41,3.51l0,0v0a8.71,8.71,0,0,0,1.56,3.26,7.41,7.41,0,0,1,1.61,3.87c.07,1.75-.46,3.14-1.42,3.67a1.67,1.67,0,0,1-.79.21A1.77,1.77,0,0,1,16.28,21Z" transform="translate(-4.78 -5.82)"/><path id="H" d="M24.12,6.44V21.27a.22.22,0,0,1-.24.22.24.24,0,0,1-.24-.22v-7.2a4,4,0,0,1-1,.07A15.66,15.66,0,0,1,20.43,14s-.05,0-.05,0v7.32a.24.24,0,0,1-.24.22.23.23,0,0,1-.24-.22V6.44a.23.23,0,0,1,.24-.22.24.24,0,0,1,.24.22v7.08s.1,0,.14,0a12.85,12.85,0,0,0,3.05.12h.07V6.44a.24.24,0,0,1,.24-.22A.22.22,0,0,1,24.12,6.44Z" transform="translate(-4.78 -5.82)"/><path id="K-2" data-name="K" d="M32.17,24.23a.23.23,0,0,1-.22.19H31.9c-1.61-.36-2.3-3.6-2.81-6-.17-.77-.29-1.42-.43-1.83-.5-1.44-1.66-2.83-3.12-2.78v7.27a.23.23,0,0,1-.22.24.23.23,0,0,1-.24-.24V6.37a.23.23,0,0,1,.24-.22.22.22,0,0,1,.22.22V13.3a0,0,0,0,0,0,0c1.73-1.87,2.48-4.46,3.1-7a.22.22,0,0,1,.26-.17.2.2,0,0,1,.17.27c-.6,2.47-1.34,5-3,7,1.51.24,2.55,1.73,3,3,.15.43.29,1.1.46,1.87C30,20.46,30.68,23.67,32,24A.22.22,0,0,1,32.17,24.23Z" transform="translate(-4.78 -5.82)"/><path id="A" d="M36.12,21.08a.23.23,0,0,1-.21.27.23.23,0,0,1-.24-.22l-.46-4.73H31.8c-.38,2.64-.57,4.68-.6,4.73a.21.21,0,0,1-.21.22h0a.25.25,0,0,1-.21-.27s.21-2.16.62-4.92c0,0,0,0,0-.05a50.65,50.65,0,0,1,2.25-9.89.22.22,0,0,1,.22-.14h.6a.21.21,0,0,1,.21.19Zm-1-5.14-.91-9.4H34a51,51,0,0,0-2.13,9.4Z" transform="translate(-4.78 -5.82)"/><path id="M" d="M42.92,6.22V21a.22.22,0,0,1-.22.22.24.24,0,0,1-.24-.22V7.74L40.2,15a.25.25,0,0,1-.24.17.23.23,0,0,1-.21-.15L37.3,7.64V21.06a.21.21,0,0,1-.22.21.22.22,0,0,1-.24-.21V6.22A.2.2,0,0,1,37,6a.24.24,0,0,1,.26.14l2.66,8,2.52-8A.22.22,0,0,1,42.72,6,.2.2,0,0,1,42.92,6.22Z" transform="translate(-4.78 -5.82)"/><path id="O-2" data-name="O" d="M45.1,20.75c-1.2-1-1.37-4.71-1.44-8.12,0-.41,0-.74,0-1,0-1.89.55-5.8,2.18-5.8.48,0,1,.36,1.46,1,1.71,2.38,1.47,7.66.77,10.68,0,.12-.07.27-.12.41-.36,1.27-.89,3.15-2,3.15A1.36,1.36,0,0,1,45.1,20.75Zm-1-9.13c0,.24,0,.6,0,1,0,2.23.12,6.84,1.27,7.8a.87.87,0,0,0,.55.24c.74,0,1.27-1.82,1.54-2.81,0-.14.09-.29.12-.41.67-2.83.91-8.06-.68-10.29-.4-.56-.79-.87-1.1-.87C44.86,6.27,44.09,9.15,44.09,11.62Z" transform="translate(-4.78 -5.82)"/><path id="R" d="M56.24,24.39a.24.24,0,0,1-.22.2H56c-1.68-.36-2.37-3.72-2.9-6.17a17.24,17.24,0,0,0-.46-1.9c-.65-1.85-1.56-2.74-2.83-2.69V21a.23.23,0,0,1-.24.23A.22.22,0,0,1,49.3,21V6.37a.22.22,0,0,1,.07-.17v0a.22.22,0,0,1,.22-.27C52.76,5.72,52.9,7.33,53,8.53a10.65,10.65,0,0,1-.34,4.25,1.76,1.76,0,0,1-1.24,1.08,5,5,0,0,1,1.63,2.52c.14.43.29,1.12.48,1.94.45,2.19,1.15,5.5,2.52,5.79A.25.25,0,0,1,56.24,24.39Zm-6-11,.05,0c.91.12,1.53,0,1.94-.84a9.71,9.71,0,0,0,.29-4c-.12-1.13-.22-2.31-2.76-2.19v7A2.57,2.57,0,0,1,50.26,13.38Z" transform="translate(-4.78 -5.82)"/><path id="O-3" data-name="O" d="M55.47,20.75c-1.2-1-1.37-4.71-1.44-8.12,0-.41,0-.74,0-1,0-1.89.56-5.8,2.19-5.8.48,0,1,.36,1.46,1,1.71,2.38,1.47,7.66.77,10.68-.05.12-.07.27-.12.41-.36,1.27-.89,3.15-2,3.15A1.34,1.34,0,0,1,55.47,20.75Zm-1-9.13c0,.24,0,.6,0,1,.05,2.23.12,6.84,1.28,7.8a.87.87,0,0,0,.55.24c.74,0,1.27-1.82,1.53-2.81a2.62,2.62,0,0,0,.12-.41c.68-2.83.92-8.06-.67-10.29-.41-.56-.79-.87-1.1-.87C55.23,6.27,54.46,9.15,54.46,11.62Z" transform="translate(-4.78 -5.82)"/><path id="S-2" data-name="S" d="M60.65,21c-1-.65-1.39-2.26-1.15-4.25a.23.23,0,0,1,.24-.21.26.26,0,0,1,.22.26c-.22,1.82.14,3.27,1,3.82a1.12,1.12,0,0,0,1.22,0c.62-.33,1.25-1.37,1.18-3.24a7,7,0,0,0-1.54-3.62,11,11,0,0,1-1.63-3.46v0c-.31-1.2-.72-2.83.52-3.93a1.44,1.44,0,0,1,1.66-.17c.51.26,1.32,1,1,3.36a.25.25,0,0,1-.26.19.23.23,0,0,1-.19-.26c.17-1.47-.12-2.52-.79-2.88A1,1,0,0,0,61,6.63c-1,.94-.7,2.31-.41,3.51l0,0v0a8.86,8.86,0,0,0,1.56,3.26,7.41,7.41,0,0,1,1.61,3.87c.07,1.75-.45,3.14-1.41,3.67a1.71,1.71,0,0,1-.8.21A1.8,1.8,0,0,1,60.65,21Z" transform="translate(-4.78 -5.82)"/><path id="H-2" data-name="H" d="M68.5,6.44V21.27a.23.23,0,0,1-.24.22.24.24,0,0,1-.24-.22v-7.2a4.06,4.06,0,0,1-1,.07A15.77,15.77,0,0,1,64.8,14a.06.06,0,0,0,0,0v7.32a.24.24,0,0,1-.24.22.23.23,0,0,1-.24-.22V6.44a.23.23,0,0,1,.24-.22.24.24,0,0,1,.24.22v7.08a.34.34,0,0,1,.15,0,12.83,12.83,0,0,0,3,.12H68V6.44a.24.24,0,0,1,.24-.22A.23.23,0,0,1,68.5,6.44Z" transform="translate(-4.78 -5.82)"/><path id="K-3" data-name="K" d="M76.54,24.23a.22.22,0,0,1-.22.19h0c-1.61-.36-2.31-3.6-2.81-6A17.9,17.9,0,0,0,73,16.59c-.5-1.44-1.65-2.83-3.12-2.78v7.27a.22.22,0,0,1-.21.24.23.23,0,0,1-.24-.24V6.37a.22.22,0,0,1,.24-.22.21.21,0,0,1,.21.22V13.3s0,0,0,0c1.73-1.87,2.47-4.46,3.09-7a.24.24,0,0,1,.27-.17.21.21,0,0,1,.17.27,16.61,16.61,0,0,1-3,7c1.51.24,2.54,1.73,3,3,.14.43.29,1.1.45,1.87.46,2.14,1.13,5.35,2.45,5.64A.21.21,0,0,1,76.54,24.23Z" transform="translate(-4.78 -5.82)"/><path id="A-2" data-name="A" d="M80.5,21.08a.24.24,0,0,1-.22.27.23.23,0,0,1-.24-.22l-.45-4.73H76.18c-.39,2.64-.58,4.68-.6,4.73a.22.22,0,0,1-.22.22h0a.25.25,0,0,1-.22-.27s.22-2.16.63-4.92c0,0,0,0,0-.05A50.63,50.63,0,0,1,78,6.22a.21.21,0,0,1,.21-.14h.6a.22.22,0,0,1,.22.19Zm-1-5.14-.91-9.4h-.24a50.18,50.18,0,0,0-2.14,9.4Z" transform="translate(-4.78 -5.82)"/></g></svg>