<svg xmlns="http://www.w3.org/2000/svg" xmlns:xlink="http://www.w3.org/1999/xlink" version="1.1" id="Layer_1" x="0px" y="0px" style="enable-background:new 0 0 595.28 841.89;" xml:space="preserve" viewBox="183.73 221.06 227.85 278.53"><path fill="currentColor" stroke="currentColor" d="M310.21,221.06c-7.59,27.37-14.95,54.27-22.52,81.12c-9.82,34.81-19.84,69.55-29.54,104.39c-0.29,1.03,1.92,3.96,3.02,3.99  c10.72,0.31,21.45,0.18,32.29,0.18c-10.37,26.1-20.86,52.51-31.35,78.93c1.21,0.47,2.43,0.94,3.64,1.4  c26.78-39.48,53.55-78.97,80.89-119.28c-12.57,0-24.09,0-36.59,0c2.95-7.92,5.54-15.13,8.31-22.27c7-18.05,13.94-36.14,21.34-54.03  c0.85-2.05,4.65-4.35,6.86-4.14c45.78,4.28,73.47,45.63,62.7,93.2c-13.6,60.08-75.24,111.5-136.76,114.56  c-23.95,1.19-47.74,1.54-66.75-16.01c-24.05-22.21-25.54-50.91-17.97-79.77c15.8-60.2,33.35-119.93,50.25-179.84  c0.27-0.95,1.48-2.33,2.25-2.34C263.35,221.04,286.44,221.06,310.21,221.06z"></path></svg>